<svg data-v-0dd9719b="" version="1.0" xmlns="http://www.w3.org/2000/svg" xmlns:xlink="http://www.w3.org/1999/xlink" width="100%" height="100%" viewBox="0 0 340.000000 250.000000" preserveAspectRatio="xMidYMid meet" color-interpolation-filters="sRGB" style="margin: auto;">   <g data-v-0dd9719b="" class="iconmbgsvg" transform="translate(59.75,66.25)"><g fill="#666e22" hollow-target="textRect"><g transform="translate(51.5,0)" mask="url(#5e5c3415-0102-447f-a505-4d5be934354a)"><g><rect fill="#666e22" fill-opacity="0" stroke-width="2" x="0" y="0" width="117.5" height="117.5" class="image-rect"></rect> <svg filter="url(#colors8997775714)" x="0" y="0" width="117.5" height="117.5" filtersec="colorsf7508557765" class="image-svg-svg primary" style="overflow: visible;"><svg viewBox="0 0 100 100" xmlns="http://www.w3.org/2000/svg"><path d="M100 0v100H0V0h100zm-5 5H5v90h90V5z" fill="#333" fill-rule="nonzero"></path></svg></svg> <defs><filter id="colors8997775714"><feColorMatrix type="matrix" values="0 0 0 0 0.82421875  0 0 0 0 0.484375  0 0 0 0 0.109375  0 0 0 1 0" class="icon-fecolormatrix"></feColorMatrix></filter> <filter id="colorsf7508557765"><feColorMatrix type="matrix" values="0 0 0 0 0.99609375  0 0 0 0 0.99609375  0 0 0 0 0.99609375  0 0 0 1 0" class="icon-fecolormatrix"></feColorMatrix></filter> <filter id="colorsb5733496791"><feColorMatrix type="matrix" values="0 0 0 0 0  0 0 0 0 0  0 0 0 0 0  0 0 0 1 0" class="icon-fecolormatrix"></feColorMatrix></filter></defs></g></g> <g transform="translate(0,43.63000011444092)"><g data-gra="path-name" fill-rule="" class="tp-name"><g transform="scale(1)"><g><path d="M9.04-17.73L26.95-17.73 26.95-12.38 9.04-12.38 9.04 0 2.7 0 2.7-15.66Q2.75-22.41 3.96-24.52L3.96-24.52Q5.49-27.49 8.39-28.75 11.29-30.02 16.56-30.02L16.56-30.02 26.95-30.02 26.95-24.66 17.37-24.66Q12.91-24.57 11.65-23.94L11.65-23.94Q9.13-22.9 9.04-19.35L9.04-19.35 9.04-17.73ZM31.32-13.14L31.32-30.02 37.66-30.02 37.66-13.14Q37.8-9.95 37.93-8.91L37.93-8.91Q38.25-6.84 39.91-6.1 41.58-5.35 45.77-5.35L45.77-5.35 51.88-5.35 51.88 0 45.09 0Q40.27 0 38.11-0.54L38.11-0.54Q33.16-1.98 31.81-6.84L31.81-6.84Q31.32-8.73 31.32-13.14L31.32-13.14ZM63.76 0L63.76-13.14 52.65-30.02 60.12-30.02 67-18.27 74.25-30.02 81.85-30.02 70.16-12.91 70.16 0 63.76 0ZM84.87-30.02L94.18-30.02 101.66-6.57 109.53-30.02 118.84-30.02 118.84 0 112.77 0 112.77-22.5 104.94 0 98.37 0 90.94-22.5 90.94 0 84.87 0 84.87-30.02ZM124.65-30.02L130.99-30.02 130.99-12.01Q130.99-9.86 131.35-8.66 131.71-7.47 132.57-6.61L132.57-6.61Q134.46-4.77 137.83-4.77L137.83-4.77Q139.99-4.77 141.59-5.51 143.19-6.25 143.82-7.51L143.82-7.51Q144.45-8.78 144.45-12.01L144.45-12.01 144.45-30.02 150.84-30.02 150.84-12.33Q150.84-8.82 150.1-6.55 149.35-4.27 147.82-2.88L147.82-2.88Q144.27 0.22 137.74 0.22L137.74 0.22Q130.77 0.22 127.57-2.83L127.57-2.83Q125.91-4.41 125.28-6.37 124.65-8.32 124.65-11.88L124.65-11.88 124.65-30.02ZM171.58 0L156.51 0 156.51-5.35 170.23-5.35Q173.52-5.35 174.6-5.98L174.6-5.98Q176.17-6.93 176.17-8.82L176.17-8.82Q176.17-11.03 174.33-12.01L174.33-12.01Q173.29-12.6 171-12.6L171-12.6 165.42-12.6Q160.33-12.6 158.08-14.45L158.08-14.45Q156.69-15.62 155.9-17.37 155.11-19.13 155.11-21.15L155.11-21.15Q155.11-24.3 156.96-26.91L156.96-26.91Q158.76-29.43 162.72-29.88L162.72-29.88Q164.07-30.02 166.72-30.02L166.72-30.02 181.62-30.02 181.62-24.66 168.16-24.66Q165.15-24.61 164.16-24.39L164.16-24.39Q162.13-23.89 162.13-21.33L162.13-21.33Q162.13-19.17 163.84-18.45L163.84-18.45Q164.97-17.91 167.62-17.91L167.62-17.91 172.44-17.91Q176.13-17.91 177.93-17.28L177.93-17.28Q181.12-16.2 182.34-13.5L182.34-13.5Q183.28-11.34 183.28-8.87L183.28-8.87Q183.28-6.12 182.02-3.96L182.02-3.96Q180.27-0.9 176.76-0.27L176.76-0.27Q175.05 0 171.58 0L171.58 0ZM194.31 0L187.92 0 187.92-30.02 194.31-30.02 194.31 0ZM214.02-5.35L223.2-5.35 223.2 0 212.71 0Q209.74 0 208.17-0.32L208.17-0.32Q202.63-1.4 200.29-6.48L200.29-6.48Q198.76-9.9 198.76-14.94L198.76-14.94Q198.76-20.97 201.1-24.75L201.1-24.75Q202.81-27.49 205.67-28.75 208.53-30.02 213.03-30.02L213.03-30.02 223.2-30.02 223.2-24.66 213.75-24.66Q209.47-24.66 207.49-22.36L207.49-22.36Q205.83-20.47 205.83-15.52L205.83-15.52Q205.83-8.87 208.39-6.79L208.39-6.79Q210.19-5.35 214.02-5.35L214.02-5.35Z" transform="translate(-2.700000047683716, 30.020000457763672)"></path></g> <!----> <!----> <!----> <!----> <!----> <!----> <!----></g></g> <!----></g></g></g><mask id="5e5c3415-0102-447f-a505-4d5be934354a"><g fill="white"><g><rect fill-opacity="1" stroke-width="2" x="0" y="0" width="117.5" height="117.5" class="image-rect"></rect> <svg x="0" y="0" width="117.5" height="117.5" class="image-svg-svg primary" style="overflow: visible;" filter="url(#colorsf7508557765)"><svg viewBox="0 0 100 100" xmlns="http://www.w3.org/2000/svg"><path d="M100 0v100H0V0h100zm-5 5H5v90h90V5z" fill-rule="nonzero"></path></svg></svg> <defs>  </defs></g></g> <g transform="translate(-51.5,43.63000011444092)"><rect fill="black" fill-opacity="1" x="-3.5" y="-3.5" width="227.5" height="37.239999771118164"></rect><rect fill="black" fill-opacity="1" x="-3.5" y="-3.5"></rect></g><g transform="translate(-51.5,43.63000011444092)" fill="black"><g data-gra="path-name" fill-rule="" class="tp-name"><g transform="scale(1)"><g><path d="M9.04-17.73L26.95-17.73 26.95-12.38 9.04-12.38 9.04 0 2.7 0 2.7-15.66Q2.75-22.41 3.96-24.52L3.96-24.52Q5.49-27.49 8.39-28.75 11.29-30.02 16.56-30.02L16.56-30.02 26.95-30.02 26.95-24.66 17.37-24.66Q12.91-24.57 11.65-23.94L11.65-23.94Q9.13-22.9 9.04-19.35L9.04-19.35 9.04-17.73ZM31.32-13.14L31.32-30.02 37.66-30.02 37.66-13.14Q37.8-9.95 37.93-8.91L37.93-8.91Q38.25-6.84 39.91-6.1 41.58-5.35 45.77-5.35L45.77-5.35 51.88-5.35 51.88 0 45.09 0Q40.27 0 38.11-0.54L38.11-0.54Q33.16-1.98 31.81-6.84L31.81-6.84Q31.32-8.73 31.32-13.14L31.32-13.14ZM63.76 0L63.76-13.14 52.65-30.02 60.12-30.02 67-18.27 74.25-30.02 81.85-30.02 70.16-12.91 70.16 0 63.76 0ZM84.87-30.02L94.18-30.02 101.66-6.57 109.53-30.02 118.84-30.02 118.84 0 112.77 0 112.77-22.5 104.94 0 98.37 0 90.94-22.5 90.94 0 84.87 0 84.87-30.02ZM124.65-30.02L130.99-30.02 130.99-12.01Q130.99-9.86 131.35-8.66 131.71-7.47 132.57-6.61L132.57-6.61Q134.46-4.77 137.83-4.77L137.83-4.77Q139.99-4.77 141.59-5.51 143.19-6.25 143.82-7.51L143.82-7.51Q144.45-8.78 144.45-12.01L144.45-12.01 144.45-30.02 150.84-30.02 150.84-12.33Q150.84-8.82 150.1-6.55 149.35-4.27 147.82-2.88L147.82-2.88Q144.27 0.22 137.74 0.22L137.74 0.22Q130.77 0.22 127.57-2.83L127.57-2.83Q125.91-4.41 125.28-6.37 124.65-8.32 124.65-11.88L124.65-11.88 124.65-30.02ZM171.58 0L156.51 0 156.51-5.35 170.23-5.35Q173.52-5.35 174.6-5.98L174.6-5.98Q176.17-6.93 176.17-8.82L176.17-8.82Q176.17-11.03 174.33-12.01L174.33-12.01Q173.29-12.6 171-12.6L171-12.6 165.42-12.6Q160.33-12.6 158.08-14.45L158.08-14.45Q156.69-15.62 155.9-17.37 155.11-19.13 155.11-21.15L155.11-21.15Q155.11-24.3 156.96-26.91L156.96-26.91Q158.76-29.43 162.72-29.88L162.72-29.88Q164.07-30.02 166.72-30.02L166.72-30.02 181.62-30.02 181.62-24.66 168.16-24.66Q165.15-24.61 164.16-24.39L164.16-24.39Q162.13-23.89 162.13-21.33L162.13-21.33Q162.13-19.17 163.84-18.45L163.84-18.45Q164.97-17.91 167.62-17.91L167.62-17.91 172.44-17.91Q176.13-17.91 177.93-17.28L177.93-17.28Q181.12-16.2 182.34-13.5L182.34-13.5Q183.28-11.34 183.28-8.87L183.28-8.87Q183.28-6.12 182.02-3.96L182.02-3.96Q180.27-0.9 176.76-0.27L176.76-0.27Q175.05 0 171.58 0L171.58 0ZM194.31 0L187.92 0 187.92-30.02 194.31-30.02 194.31 0ZM214.02-5.35L223.2-5.35 223.2 0 212.71 0Q209.74 0 208.17-0.32L208.17-0.32Q202.63-1.4 200.29-6.48L200.29-6.48Q198.76-9.9 198.76-14.94L198.76-14.94Q198.76-20.97 201.1-24.75L201.1-24.75Q202.81-27.49 205.67-28.75 208.53-30.02 213.03-30.02L213.03-30.02 223.2-30.02 223.2-24.66 213.75-24.66Q209.47-24.66 207.49-22.36L207.49-22.36Q205.83-20.47 205.83-15.52L205.83-15.52Q205.83-8.87 208.39-6.79L208.39-6.79Q210.19-5.35 214.02-5.35L214.02-5.35Z" transform="translate(-2.700000047683716, 30.020000457763672)"></path></g>       </g></g> </g></mask><defs v-gra="od"></defs></svg>